# xmcd
#
# Track frame offsets:
# 150
# 11059
# 24609
# 37670
# 47672
# 61040
# 75492
# 88637
# 102607
# 115497
#
# Disc length: 1674 seconds
#
#
# Revision: 0
# Processed by: cddbd v1.5.1PL2 Copyright (c) Steve Scherf et al.
# Submitted via: FreeRIP 2.944 
#
DISCID=7206880a
DTITLE=Ronnie McDowell - I'm Still Missing You
DYEAR=1988
DGENRE=Country
TTITLE0=It's Only Make Believe
TTITLE1=Cry To Me
TTITLE2=Ain't Love Wonderful
TTITLE3=Party Girl
TTITLE4=Rock and Roll Kiss
TTITLE5=Smokey Places
TTITLE6=Tryin' to Find That Girl
TTITLE7=Suspicion
TTITLE8=I'm Still Missing You
TTITLE9=Never Too Old to Rock and Roll
EXTD=
EXTT0=
EXTT1=
EXTT2=
EXTT3=
EXTT4=
EXTT5=
EXTT6=
EXTT7=
EXTT8=
EXTT9=
PLAYORDER=
